# xmcd CD database file
#
# Track frame offsets:
#	150
#	90112
#	114147
#	141835
#
# Disc length: 3289 seconds
#
# Revision: 7
# Processed by: cddbd v1.5.2PL0 Copyright (c) Steve Scherf et al.
# Submitted via: CDex 1.51
#
DISCID=220cd704
DTITLE=Miles Davis - On the Corner [Remastered 2000]
DYEAR=1972
DGENRE=Jazz
TTITLE0=On The Corner--New York Girl--Thinkin' One Thing and Doin' Another--Vote for Miles
TTITLE1=Black Satin
TTITLE2=One and One
TTITLE3=Helen Butte--Mr. Freedom X
EXTD=YEAR: 1972
EXTT0=
EXTT1=
EXTT2=
EXTT3=
PLAYORDER=
